HIERARCHY
ROOT RootJoint
{
    OFFSET   0.000000   0.000000   0.000000
    CHANNELS 6 Xposition Yposition Zposition Xrotation Yrotation Zrotation
    JOINT pelvis_lowerback
    {
        OFFSET   0.000000   0.093605   0.000000
        CHANNELS 3 Xrotation Yrotation Zrotation
        JOINT lowerback_torso
        {
            OFFSET   0.000000   0.100000   0.000000
            CHANNELS 3 Xrotation Yrotation Zrotation
            JOINT torso_head
            {
                OFFSET   0.000000   0.282350   0.000000
                CHANNELS 3 Xrotation Yrotation Zrotation
                End Site
                {
                    OFFSET   0.000000   0.192650   0.000000
                }
            }
            JOINT rTorso_Clavicle
            {
                OFFSET  -0.001000   0.157500   0.000000
                CHANNELS 3 Xrotation Yrotation Zrotation
                JOINT rShoulder
                {
                    OFFSET  -0.117647   0.000000   0.000000
                    CHANNELS 3 Xrotation Yrotation Zrotation
                    JOINT rElbow
                    {
                        OFFSET  -0.245000   0.000000   0.000000
                        CHANNELS 3 Xrotation Yrotation Zrotation
                        JOINT rWrist
                        {
                            OFFSET  -0.240000   0.000000   0.000000
                            CHANNELS 3 Xrotation Yrotation Zrotation
                            End Site
                            {
                                OFFSET  -0.116353  -0.002500   0.000000
                            }
                        }
                    }
                }
            }
            JOINT lTorso_Clavicle
            {
                OFFSET   0.001000   0.157500   0.000000
                CHANNELS 3 Xrotation Yrotation Zrotation
                JOINT lShoulder
                {
                    OFFSET   0.117647   0.000000   0.000000
                    CHANNELS 3 Xrotation Yrotation Zrotation
                    JOINT lElbow
                    {
                        OFFSET   0.245000   0.000000   0.000000
                        CHANNELS 3 Xrotation Yrotation Zrotation
                        JOINT lWrist
                        {
                            OFFSET   0.240000   0.000000   0.000000
                            CHANNELS 3 Xrotation Yrotation Zrotation
                            End Site
                            {
                                OFFSET   0.116353  -0.002500   0.000000
                            }
                        }
                    }
                }
            }
        }
    }
    JOINT rHip
    {
        OFFSET  -0.100000  -0.051395   0.000000
        CHANNELS 3 Xrotation Yrotation Zrotation
        JOINT rKnee
        {
            OFFSET   0.000000  -0.410000   0.000000
            CHANNELS 3 Xrotation Yrotation Zrotation
            JOINT rAnkle
            {
                OFFSET   0.000000  -0.390000   0.000000
                CHANNELS 3 Xrotation Yrotation Zrotation
                JOINT rToeJoint
                {
                    OFFSET   0.000000  -0.050000   0.130000
                    CHANNELS 3 Xrotation Yrotation Zrotation
                    End Site
                    {
                        OFFSET  -0.010000   0.002000   0.060000
                    }
                }
            }
        }
    }
    JOINT lHip
    {
        OFFSET   0.100000  -0.051395   0.000000
        CHANNELS 3 Xrotation Yrotation Zrotation
        JOINT lKnee
        {
            OFFSET   0.000000  -0.410000   0.000000
            CHANNELS 3 Xrotation Yrotation Zrotation
            JOINT lAnkle
            {
                OFFSET   0.000000  -0.390000   0.000000
                CHANNELS 3 Xrotation Yrotation Zrotation
                JOINT lToeJoint
                {
                    OFFSET   0.000000  -0.050000   0.130000
                    CHANNELS 3 Xrotation Yrotation Zrotation
                    End Site
                    {
                        OFFSET   0.010000   0.002000   0.060000
                    }
                }
            }
        }
    }
}
MOTION
Frames: 17
Frame Time:   0.008333
 -3.781694   0.897656   4.141747  -3.471140 -60.914007   1.511315  15.045985  11.724828   0.147189   7.958795   8.954241  -2.427063  -7.428748  -3.251079  -0.440712  -1.249488   7.590958   1.574335  -4.226156  13.595663  35.070729  -0.064568  83.172976   0.071427   1.626236   6.978134  -4.228247   8.821891   1.056859  -4.170689  43.825285  -7.804626 -61.166421  -0.016393 -21.989767  -0.024372  -1.773903  -3.567142  -9.217233 -13.518557  -7.502615   7.276903  67.450115   0.013276  -0.054952  -5.558018  -0.129246  12.938750  -8.433847   0.013672  -0.038417 -33.570317  -1.593146  -4.642527  37.939687  -0.032370   0.032425 -17.065064  -6.829536  -0.650614   1.945486   0.000567  -0.006795
 -3.798265   0.895398   4.143934  -5.729711 -61.487799  -0.361519  15.372525  11.612718   0.372738   7.708838   9.175223  -2.229620  -7.190436  -3.377879  -0.354839  -1.302998   7.923355   1.174359  -3.964613  14.373951  35.626954  -0.088999  84.322476   0.096489   1.635368   7.063960  -4.077241   8.599037   1.167103  -4.340890  43.144331  -7.648313 -61.244791  -0.017990 -22.515291  -0.024687  -1.711452  -3.575017  -8.922124 -13.166379  -6.996283   6.174071  70.154302   0.017506  -0.067098  -5.851987  -1.339120  12.383193  -7.973587   0.016404  -0.039845 -32.177331  -1.475984  -4.752263  37.985813  -0.025881   0.025739 -17.872753  -6.918453  -0.201264   1.921439   0.000522  -0.005320
 -3.814800   0.892554   4.146137  -8.080905 -62.048054  -2.318796  15.692119  11.460655   0.607478   7.490995   9.361421  -2.049309  -6.956426  -3.499942  -0.270534  -1.364582   8.244333   0.786202  -3.737643  15.115147  36.134419  -0.132632  85.411747   0.139936   1.650234   7.234701  -3.929718   8.357468   1.252390  -4.530224  42.475492  -7.519560 -61.319989  -0.019225 -23.019124  -0.024211  -1.655857  -3.628822  -8.613522 -13.010115  -6.476924   4.980885  72.744236   0.019397  -0.077927  -6.135212  -2.474438  11.849757  -7.574726   0.017702  -0.039608 -30.662265  -1.389338  -4.838848  38.308613  -0.020679   0.019203 -18.621227  -7.006359   0.217640   1.866956   0.000562  -0.003977
 -3.831377   0.889113   4.148246 -10.435006 -62.554628  -4.319788  15.968705  11.283377   0.858345   7.269363   9.505704  -1.861158  -6.734744  -3.614844  -0.185599  -1.420871   8.535561   0.421463  -3.531073  15.805419  36.603551  -0.203404  86.431054   0.209967   1.666554   7.428435  -3.801809   8.110551   1.315977  -4.714426  41.832110  -7.408176 -61.382872  -0.020077 -23.496756  -0.023204  -1.607547  -3.718229  -8.298644 -13.024387  -5.988254   3.777079  75.136143   0.018937  -0.085818  -6.411789  -3.531275  11.341388  -7.220360   0.017943  -0.038315 -29.054266  -1.332994  -4.873338  38.718317  -0.016675   0.013692 -19.315343  -7.093158   0.607636   1.822461   0.000559  -0.002960
 -3.848018   0.885040   4.150216 -12.769802 -62.996530  -6.347312  16.202801  11.084682   1.117717   7.038838   9.609432  -1.665334  -6.528704  -3.722312  -0.101822  -1.469734   8.794642   0.078243  -3.340102  16.444157  37.037314  -0.320254  87.382459   0.325641   1.682474   7.619221  -3.697078   7.865450   1.360733  -4.882250  41.219811  -7.308578 -61.429991  -0.020549 -23.947525  -0.021830  -1.564596  -3.831716  -7.973817 -13.181238  -5.534223   2.595321  77.329829   0.016888  -0.090549  -6.681917  -4.514601  10.857945  -6.906115   0.017412  -0.036285 -27.381473  -1.301344  -4.859526  39.166648  -0.013619   0.009279 -19.960363  -7.177943   0.970755   1.786989   0.000529  -0.002201
 -3.864732   0.880304   4.152029 -15.076554 -63.371092  -8.388284  16.400120  10.867511   1.377623   6.802264   9.675623  -1.466605  -6.338167  -3.822653  -0.020722  -1.511977   9.022993  -0.246467  -3.162762  17.033685  37.437242  -0.539788  88.269685   0.543686   1.697651   7.798542  -3.615842   7.626161   1.389047  -5.029533  40.640774  -7.217562 -61.460441  -0.020654 -24.371506  -0.020215  -1.525122  -3.959345  -7.636958 -13.453079  -5.110973   1.452771  79.340403   0.013963  -0.092411  -6.944874  -5.429433  10.398979  -6.627297   0.016371  -0.033797 -25.669018  -1.289128  -4.807136  39.636231  -0.011290   0.005835 -20.560178  -7.260362   1.308846   1.758945   0.000484  -0.001637
 -3.881517   0.874879   4.153676 -17.347795 -63.678677 -10.429512  16.566484  10.635040   1.631918   6.563400   9.708125  -1.269696  -6.162092  -3.916307   0.056683  -1.548790   9.222946  -0.555023  -2.997785  17.576998  37.804966  -1.114972  89.096671   1.117207   1.712124   7.963739  -3.557356   7.394862   1.403226  -5.155598  40.095258  -7.133300 -61.474973  -0.020422 -24.769376  -0.018465  -1.487784  -4.094006  -7.288491 -13.814638  -4.713872   0.359619  81.184755   0.010701  -0.091883  -7.199883  -6.280545   9.963892  -6.379551   0.015032  -0.031066 -23.939351  -1.291726  -4.725627  40.117293  -0.009510   0.003203 -21.118158  -7.340235   1.623624   1.736961   0.000432  -0.001218
 -3.898166   0.869062   4.154984 -19.535414 -64.274257 -12.477600  16.753241  10.509062   1.962027   6.265888   9.816752  -1.337961  -6.145031  -3.941090   0.126603  -1.729250   9.268852  -0.650949  -2.851281  18.026683  38.294779  -2.715230  89.614851   2.717126   1.711355   8.349697  -3.472488   7.290634   1.443573  -5.284298  39.210759  -7.088515 -61.261115  -0.019846 -25.077340  -0.016323  -1.338999  -3.966713  -7.098698 -14.578464  -3.956463  -0.704363  82.367135   0.008615  -0.086096  -7.741943  -7.034756   9.237586  -5.950576   0.016002  -0.031033 -22.182794  -1.234159  -4.318321  40.931978  -0.010143  -0.000255 -21.988009  -6.978797   2.127024   1.708157   0.000493  -0.000932
 -3.914822   0.862636   4.156081 -21.783198 -64.894830 -14.601320  16.939411  10.327928   2.245923   5.972717   9.863139  -1.428126  -6.137322  -3.958935   0.179822  -1.880685   9.289139  -0.713489  -2.702708  18.424128  38.763756 -165.803154  89.923879 165.804663   1.700421   8.603588  -3.448323   7.136465   1.434587  -5.397113  38.337068  -7.066763 -61.021129  -0.019479 -25.379246  -0.014002  -1.198192  -3.864441  -6.838854 -15.578519  -3.165634  -1.843636  83.224187   0.006522  -0.078949  -8.273308  -7.731766   8.546342  -5.592175   0.015620  -0.030120 -20.297061  -1.215857  -3.775347  41.830472  -0.012223  -0.003174 -22.800267  -6.640420   2.604369   1.663587   0.000657  -0.000643
 -3.931539   0.855476   4.157001 -24.097694 -65.473914 -16.810328  17.112605  10.079133   2.496820   5.690433   9.831567  -1.513925  -6.128488  -3.976401   0.226758  -2.007529   9.280061  -0.772736  -2.551004  18.778333  39.199229 -177.803435  89.505175 177.804401   1.686252   8.788655  -3.437755   6.956360   1.386965  -5.484102  37.493474  -7.059619 -60.765418  -0.019174 -25.671997  -0.011638  -1.068628  -3.816959  -6.524863 -16.742321  -2.377363  -3.009032  83.890399   0.004736  -0.071403  -8.784638  -8.375818   7.892085  -5.276430   0.014623  -0.028814 -18.300488  -1.220917  -3.136791  42.759716  -0.014904  -0.005094 -23.556791  -6.329303   3.054915   1.628513   0.000753  -0.000422
 -3.947731   0.850056   4.157460 -27.092237 -65.706728 -19.281796  17.708599   9.678544   2.494803   5.595415   9.635111  -1.683654  -6.127170  -3.998106   0.262083  -2.119186   9.279335  -0.745587  -2.404674  19.078815  39.606653 -178.762733  89.161647 178.763761   1.670146   8.777343  -3.521656   6.617449   1.188034  -5.650509  36.561001  -7.122390 -60.463745  -0.018899 -25.974403  -0.009142  -0.950736  -3.839533  -6.065593 -17.701872  -1.523301  -4.484757  84.306043   0.003802  -0.061993  -9.267938  -8.973360   7.271908  -4.953340   0.013779  -0.027447 -17.104374  -0.934454  -2.966424  44.832648  -0.019587  -0.005456 -24.064936  -6.014344   3.445300   1.754613   0.000004  -0.000372
 -3.964454   0.845038   4.157770 -30.376263 -65.951156 -22.146981  18.185829   9.321891   2.574068   5.569236   9.442042  -1.821614  -6.084109  -4.015146   0.295065  -2.167098   9.242893  -0.714684  -2.223174  19.356442  40.010519 -179.138590  88.838134 179.139607   1.647870   8.729789  -3.460819   6.307391   1.017098  -5.787791  35.693735  -7.186381 -60.189001  -0.018545 -26.265734  -0.007039  -0.842067  -3.936713  -5.625065 -18.688322  -0.670068  -5.733031  84.645137   0.002703  -0.053488  -9.730852  -9.527110   6.684841  -4.670548   0.012326  -0.025757 -15.611250  -0.659879  -2.657051  46.604283  -0.022983  -0.005809 -24.565842  -5.716192   3.793216   1.737799   0.000085  -0.000283
 -3.981593   0.840126   4.157921 -33.734497 -66.145734 -25.163375  18.562569   8.954381   2.686528   5.521396   9.235468  -1.923776  -6.043110  -4.031386   0.327159  -2.185311   9.176210  -0.688145  -2.030590  19.604766  40.392110 -179.332319  88.534737 179.333107   1.624476   8.677129  -3.339480   6.036943   0.868986  -5.891349  34.902485  -7.239941 -59.928459  -0.018002 -26.534851  -0.005282  -0.738681  -4.040139  -5.203504 -19.749659   0.126756  -6.835594  84.949505   0.001610  -0.046246 -10.171624 -10.038262   6.132585  -4.423653   0.010618  -0.023912 -13.960602  -0.429508  -2.282021  48.166954  -0.025345  -0.006003 -25.064014  -5.445938   4.123862   1.718603   0.000165  -0.000199
 -3.998828   0.836099   4.157211 -36.403880 -66.406899 -27.699984  18.773890   8.688525   2.842539   5.228000   9.089952  -2.081927  -6.035287  -3.942643   0.316951  -2.143296   8.979009  -0.423047  -1.661495  19.729732  40.811265 -179.472921  88.743255 179.473158   1.612458   8.997338  -3.407941   5.873544   0.781164  -5.896596  33.864820  -7.119136 -59.417418  -0.021781 -27.046810  -0.005297  -0.617722  -3.839078  -4.981088 -20.986421   0.904503  -7.719657  83.750659   0.001985  -0.023943 -10.454556  -9.955355   5.891624  -4.132602   0.007929  -0.021235 -12.423427  -0.021327  -1.574671  49.310589  -0.025147  -0.002568 -25.495621  -4.737649   4.231769   1.949078  -0.000824   0.000997
 -4.016106   0.832333   4.155942 -38.763936 -66.603994 -29.969423  18.936229   8.385713   2.948290   4.894048   8.897328  -2.231251  -6.049728  -3.850417   0.285433  -2.048730   8.760629  -0.150657  -1.267977  19.814278  41.217322 -179.610053  88.988062 179.609765   1.584039   9.049248  -3.461327   5.674344   0.655348  -5.810934  32.861453  -7.016478 -58.866790  -0.024835 -27.549778  -0.004983  -0.522203  -3.779203  -4.619049 -22.312603   1.649589  -8.559109  82.134589   0.001271  -0.001948 -10.732824  -9.866413   5.670385  -3.835598   0.005702  -0.018933 -10.885769   0.407351  -0.800990  50.212505  -0.023809   0.000807 -25.937661  -4.064840   4.324255   2.169950  -0.001682   0.002112
 -4.032973   0.829330   4.154340 -41.140436 -66.885307 -32.158329  19.139750   8.090096   2.947788   4.586248   8.684353  -2.436330  -6.073953  -3.761568   0.239525  -1.946933   8.560991   0.122406  -0.888597  19.887822  41.596781 -179.764220  89.237228 179.763412   1.551331   8.964998  -3.485691   5.438373   0.490337  -5.728066  31.883818  -6.944422 -58.316072  -0.026743 -28.030440  -0.004012  -0.437150  -3.787592  -4.163199 -23.744138   2.465779  -9.442993  80.394351   0.000828   0.017604 -10.998386  -9.783093   5.462363  -3.554689   0.003830  -0.017109  -9.312768   0.620611  -0.267655  51.076936  -0.023854   0.000967 -27.630205  -3.797769   4.054568   1.631506   0.000024   0.001750
 -4.049711   0.826724   4.152203 -43.274350 -67.072133 -34.165041  19.323843   7.733906   2.964628   4.291256   8.419058  -2.609706  -6.092834  -3.680403   0.195435  -1.838520   8.353291   0.370301  -0.521832  19.947877  41.949454 -179.966779  89.472185 179.965597   1.516848   8.844261  -3.499361   5.195759   0.304131  -5.616409  30.953635  -6.891742 -57.774804  -0.027738 -28.488933  -0.002830  -0.357932  -3.851072  -3.675033 -25.186914   3.229247 -10.219194  78.677155  -0.001088   0.031669 -11.250097  -9.704381   5.269123  -3.302872   0.002553  -0.015254  -7.739792   0.893163   0.315543  51.756648  -0.022303   0.001923 -29.029461  -3.409262   3.886085   0.947241   0.002172  -0.000135
